<svg width="594" height="540" viewBox="0 0 594 540" fill="none" xmlns="http://www.w3.org/2000/svg">
<path fill-rule="evenodd" clip-rule="evenodd" d="M430.664 365.785C379.051 482.606 192.272 478.843 62.3087 399.109C37.4885 383.882 -47.8302 312.109 36.1434 270.198C120.117 228.287 93.2202 163.913 160.99 87.1312C239.362 -1.66299 385.312 -47.2047 487.957 72.2639C748.845 375.911 448.043 326.448 430.664 365.785Z" fill="#FFB61D"/>
<path fill-rule="evenodd" clip-rule="evenodd" d="M425.093 38.5507L422.095 38.4494L422.01 41.1132C421.868 45.9064 421.933 51.0338 422.005 56.6244C422.055 60.5204 422.107 64.6413 422.095 69.0307L421.597 77.6983C421.61 85.7733 421.667 97.0126 421.767 111.417L422.093 152.421C419.889 153.152 418.233 155.054 417.901 157.369C416.083 157.646 414.687 159.19 414.687 161.047C414.687 162.362 415.387 163.518 416.441 164.181L415.158 167.281C414.589 168.659 413.649 169.836 412.44 170.687C407.141 174.414 404.021 180.451 404.095 186.836C404.097 187.006 404.101 187.175 404.108 187.344C404.131 187.956 404.655 188.427 405.281 188.411C405.906 188.388 406.394 187.873 406.371 187.261C406.365 187.112 406.361 186.962 406.359 186.811C406.294 181.149 410.061 175.795 414.76 172.489C416.317 171.393 417.527 169.881 418.257 168.114L418.641 164.77H420.251C420.251 164.77 420.81 167.78 420.81 170.133C420.81 172.487 420.251 177.148 420.251 177.148H418.395C416.27 177.148 414.541 178.842 414.541 180.924C414.541 183.005 416.27 184.699 418.395 184.699H418.661C420.786 184.699 421.515 183.612 421.515 180.924C421.515 179.517 421.671 178.51 423.967 178.51C426.264 178.51 425.672 180.924 425.672 180.924C425.672 183.005 427.401 184.699 429.527 184.699H429.792C431.918 184.699 433.647 183.005 433.647 180.924C433.647 178.842 430.062 177.081 427.937 177.081C427.937 177.081 427.371 172.845 427.371 170.687C427.371 168.868 427.937 165.148 427.937 165.148H425.672C425.672 165.148 426.145 168.62 426.145 170.738C426.145 172.857 425.672 177.081 425.672 177.081C425.672 177.081 424.424 177.306 423.828 177.319C423.233 177.332 422.515 177.148 422.515 177.148C422.515 177.148 422.019 172.817 422.019 170.738C422.019 168.66 422.515 164.77 422.515 164.77H425.672H427.937H429.547L430.93 168.114C431.625 169.793 433.705 171.268 435.291 172.392L435.492 172.534C440.086 175.797 441.829 181.059 441.829 186.609C441.829 191.298 439.952 195.692 436.542 198.983C433.134 202.274 428.62 205.049 423.828 204.98C420.029 204.926 416.145 202.832 413.108 200.563C410.168 198.366 406.359 192.357 405.725 190.969C405.091 189.582 404.793 191.771 404.978 192.357C406.198 196.225 408.694 199.718 412.006 202.193C415.431 204.752 419.508 206.137 423.795 206.198C429.199 206.274 434.288 204.274 438.132 200.563C441.976 196.852 444.094 191.896 444.094 186.609C444.094 180.35 441.001 174.417 435.821 170.738C434.559 169.842 433.594 168.647 433.029 167.281L431.747 164.181C432.8 163.519 433.5 162.362 433.5 161.047C433.5 159.19 432.104 157.646 430.286 157.369C429.912 154.759 427.854 152.673 425.226 152.2L425.081 152.2L423.344 114.07C423.24 99.5558 424.598 70.5462 424.598 70.5462C424.622 59.3904 424.759 49.6096 425.009 41.2048L425.093 38.5507ZM429.527 182.481C428.65 182.481 427.937 181.782 427.937 180.924V178.51C427.937 178.51 431.382 179.2 431.382 180.924C431.382 182.505 430.782 182.496 430.006 182.483H430.004C429.935 182.482 429.864 182.481 429.792 182.481H429.527ZM415.939 180.924C416.085 183.092 420.584 184.038 420.251 180.924V178.51C420.251 178.51 415.792 178.755 415.939 180.924ZM420.21 157.324C420.626 155.602 422.21 154.316 424.094 154.316C425.978 154.316 427.561 155.602 427.977 157.324H420.21ZM429.7 159.543H429.216H418.972H418.488C417.641 159.543 416.952 160.218 416.952 161.047C416.952 161.877 417.641 162.551 418.488 162.551H429.7C430.547 162.551 431.236 161.877 431.236 161.047C431.236 160.218 430.547 159.543 429.7 159.543ZM449.104 169.2H451.083C451.641 169.2 452.094 168.752 452.094 168.2C452.094 167.648 451.641 167.2 451.083 167.2H449.104C448.546 167.2 448.094 167.648 448.094 168.2C448.094 168.752 448.546 169.2 449.104 169.2ZM447.532 176.279L449.436 177.081C449.973 177.307 450.234 177.947 450.018 178.51C449.803 179.073 449.193 179.347 448.656 179.121L446.751 178.319C446.215 178.093 445.954 177.453 446.169 176.89C446.333 176.461 446.726 176.2 447.142 176.2C447.272 176.2 447.404 176.225 447.532 176.279ZM445.832 159.972L447.616 158.54C448.119 158.137 448.245 157.337 447.897 156.753C447.682 156.393 447.336 156.2 446.985 156.2C446.767 156.2 446.548 156.274 446.355 156.428L444.571 157.86C444.068 158.264 443.943 159.064 444.291 159.647C444.639 160.23 445.329 160.375 445.832 159.972ZM398.083 169.2H396.104C395.546 169.2 395.094 168.752 395.094 168.2C395.094 167.648 395.546 167.2 396.104 167.2H398.083C398.641 167.2 399.094 167.648 399.094 168.2C399.094 168.752 398.641 169.2 398.083 169.2ZM399.656 176.279L397.752 177.081C397.215 177.307 396.954 177.947 397.169 178.51C397.385 179.073 397.995 179.347 398.532 179.121L400.436 178.319C400.973 178.093 401.234 177.453 401.018 176.89C400.854 176.461 400.461 176.2 400.046 176.2C399.916 176.2 399.784 176.225 399.656 176.279ZM401.356 159.972L399.571 158.54C399.068 158.137 398.943 157.337 399.291 156.754C399.506 156.393 399.851 156.2 400.203 156.2C400.42 156.2 400.64 156.274 400.832 156.428L402.616 157.86C403.119 158.263 403.245 159.063 402.897 159.647C402.549 160.23 401.859 160.375 401.356 159.972Z" fill="#FFB61D"/>
<path d="M277.364 317.782C288.394 320.685 294.054 327.594 298.834 334.029C303.624 340.463 293.094 337.402 287.284 335.079C281.474 332.757 267.484 324.168 267.484 324.168L221.104 310.14V288.688L234.974 287.878C234.974 287.878 266.324 314.878 277.364 317.782Z" fill="white"/>
<path d="M229.305 160.67C239.225 198.214 244.345 234.137 245.155 268.598C245.155 268.598 254.445 269.759 253.285 277.888C252.125 286.017 227.735 308.08 227.735 308.08L219.285 280.071L216.125 176.859L229.305 160.67Z" fill="white"/>
<path fill-rule="evenodd" clip-rule="evenodd" d="M232.69 179.885L226.994 176.106C226.63 175.865 226.15 176.053 226.019 176.487L224.033 183.084C223.867 183.634 224.361 184.148 224.874 183.961L232.556 181.142C233.08 180.95 233.16 180.196 232.69 179.885ZM232 180.975L225 183L227.084 177L232 180.975Z" fill="#FFB61D"/>
<path fill-rule="evenodd" clip-rule="evenodd" d="M230.19 227.385L224.494 223.606C224.13 223.365 223.65 223.553 223.519 223.987L221.533 230.584C221.367 231.134 221.861 231.648 222.374 231.461L230.056 228.642C230.58 228.45 230.66 227.696 230.19 227.385ZM229.5 228.475L222.5 230.5L224.584 224.5L229.5 228.475Z" fill="#FFB61D"/>
<path fill-rule="evenodd" clip-rule="evenodd" d="M227.195 254.071L227.619 247.249C227.646 246.813 227.244 246.491 226.802 246.595L220.095 248.173C219.537 248.305 219.338 248.99 219.757 249.34L226.04 254.584C226.468 254.941 227.16 254.634 227.195 254.071ZM225.906 254.019L220.652 248.969L226.89 247.773L225.906 254.019Z" fill="#FFB61D"/>
<path fill-rule="evenodd" clip-rule="evenodd" d="M237.991 249.038L231.169 248.614C230.733 248.587 230.411 248.989 230.515 249.431L232.094 256.137C232.225 256.696 232.91 256.894 233.26 256.476L238.504 250.193C238.862 249.765 238.554 249.073 237.991 249.038ZM237.939 250.327L232.889 255.58L231.694 249.342L237.939 250.327Z" fill="#FFB61D"/>
<path fill-rule="evenodd" clip-rule="evenodd" d="M232.724 283.815L226.604 286.859C226.213 287.053 226.136 287.563 226.447 287.893L231.167 292.912C231.56 293.33 232.253 293.16 232.346 292.622L233.746 284.559C233.842 284.01 233.23 283.564 232.724 283.815ZM233.324 284.958L231.578 292.032L227.423 287.228L233.324 284.958Z" fill="#FFB61D"/>
<path fill-rule="evenodd" clip-rule="evenodd" d="M235.724 264.815L229.604 267.859C229.213 268.053 229.136 268.563 229.447 268.893L234.167 273.912C234.56 274.33 235.253 274.16 235.346 273.622L236.746 265.559C236.842 265.01 236.23 264.564 235.724 264.815ZM236.324 265.958L234.578 273.032L230.423 268.228L236.324 265.958Z" fill="#FFB61D"/>
<path d="M196.047 183.246L189.318 203.563C173.935 250.092 166.36 273.709 166.133 275.923C165.991 277.298 166.825 278.327 168.112 278.676C168.885 278.886 169.83 278.875 171.004 278.701C172.831 278.43 175.273 277.745 178.222 276.726C180.501 275.939 182.965 274.994 185.46 273.972L186.51 273.539C186.851 273.397 187.182 273.258 187.503 273.121L189.171 272.403L189.646 272.193L189.923 271.752C190.415 270.97 191.115 269.586 191.806 267.688C192.413 266.021 192.897 264.236 193.215 262.349L193.326 261.637C193.425 260.944 194.376 259.341 196.337 256.604L197.704 254.733C198.825 253.222 200.982 250.335 201.199 250.043L202.467 248.325C203.679 246.673 204.737 245.197 205.771 243.709C210.956 236.244 214.62 229.709 216.782 223.421C218.616 218.087 219.259 213.145 218.533 208.601C217.421 201.666 217.847 195.039 219.47 188.819C220.818 183.652 216.553 178.884 210.404 177.132C204.05 175.321 197.997 177.372 196.047 183.246Z" fill="white"/>
<path d="M207.311 153.203C211.059 157.181 214.204 160.214 216.745 162.303C221.026 165.822 227.164 169.594 235.157 173.618C210.707 179.28 195.777 180.399 190.368 176.976C190.368 176.976 192.621 166.374 195.858 161.832C198.269 158.45 207.311 153.203 207.311 153.203Z" fill="white"/>
<path d="M246.204 102.092C241.124 121.386 227.244 141.529 212.464 137.639C197.684 133.748 189.504 107.377 194.584 88.0828C199.664 68.7888 215.764 56.3018 230.544 60.1918C245.324 64.0818 251.284 82.7988 246.204 102.092Z" fill="white"/>
<path d="M249.585 108.245C243.836 130.325 228.128 153.377 211.402 148.925C194.675 144.472 185.418 114.293 191.167 92.213C196.916 70.1328 215.136 55.8425 231.863 60.2943C248.589 64.746 255.334 86.1659 249.585 108.245Z" fill="white"/>
<path fill-rule="evenodd" clip-rule="evenodd" d="M222.892 62.834C234.29 63.4815 242.608 67.2259 247.271 73.8241L247.797 74.587C250.103 77.9152 252.042 80.0098 252.89 86.3094L252.972 86.979C253.456 91.1232 253.598 95.4949 253.349 96.9457C253.215 97.5587 252.952 97.7725 252.62 97.7077C251.867 97.5604 249.916 94.0937 246.768 87.3076L244.126 90.4001C242.688 92.0611 239.639 93.6267 237.832 94.8035C236.025 95.9802 222.892 62.834 222.892 62.834Z" fill="#E7EAEE"/>
<path fill-rule="evenodd" clip-rule="evenodd" d="M234.399 125.511C240.746 128.158 245.567 131.596 246.846 130.166C248.124 128.736 243.764 124.382 240.377 118.468C236.831 112.588 233.463 105.18 232.833 102.166L231.221 94.5489C226.505 100.5 222.089 120.468 234.399 125.511Z" fill="white"/>
<path d="M308.188 489.122L307.844 510.303H295.796L292.188 486L308.188 489.122Z" fill="white"/>
<path d="M176.24 376.488C176.24 376.488 254.413 374.762 278.987 371.217C306.267 367.282 321.185 357.983 327.118 359.082C329.898 359.597 346.307 362.505 380.546 366.147C395.027 367.687 432.616 367.923 432.616 367.923L447.205 336.872C447.205 336.872 344.541 316.26 312.082 325.181C301.872 327.987 279.763 332.037 253.476 330.558C230.745 329.279 168.923 317.272 168.923 317.272C168.923 317.272 143.962 326.232 148.48 348.267C152.998 370.301 176.24 376.488 176.24 376.488Z" fill="white"/>
<path fill-rule="evenodd" clip-rule="evenodd" d="M438.84 350.157L443.646 336.242C443.646 336.242 341.155 317.125 308.696 326.046C298.487 328.852 289.26 333.479 262.973 332C252.91 331.434 235.704 329.079 211.356 324.934C199.039 322.838 197.061 323.614 206.741 329.944C229.189 344.624 279.123 341.164 324.428 334.549C408.63 322.255 438.84 350.157 438.84 350.157Z" fill="#E7EAEE"/>
<path d="M294.587 493.932C289.487 499.567 282.727 508.847 286.207 518.137L346.597 536.717C346.597 536.717 348.917 529.747 345.437 523.947C341.947 518.137 308.999 495.215 308.999 495.215L294.587 493.932Z" fill="white"/>
<path fill-rule="evenodd" clip-rule="evenodd" d="M322.462 506.517C322.862 506.408 323.273 506.645 323.382 507.044C323.49 507.444 323.254 507.856 322.854 507.964C320.887 508.497 319.591 509.74 319.136 511.314C318.546 513.348 318.482 515.429 319.15 518.76C319.232 519.166 318.969 519.561 318.563 519.643C318.157 519.724 317.761 519.461 317.68 519.055C316.965 515.493 317.037 513.168 317.695 510.896C318.298 508.813 319.996 507.185 322.462 506.517Z" fill="#E7EAEE"/>
<path fill-rule="evenodd" clip-rule="evenodd" d="M289.207 519.137L348.619 536.618C348.619 536.618 356.164 535.032 348.362 533.923C340.346 532.784 293.413 511.293 288.251 515.207C287.517 515.764 288.753 517.923 289.207 519.137Z" fill="#E7EAEE"/>
<path d="M141.171 372.056C141.171 372.056 167.979 380.518 189.567 383.69C211.155 386.862 254.216 388.667 254.216 388.667C254.216 388.667 267.66 395.975 268.527 399.359C268.865 400.677 270.902 418.097 276.535 440.349C279.184 450.816 293.342 498.152 293.342 498.152L312.082 489.856C312.082 489.856 311.33 402.854 299.367 373.998C287.405 345.142 164.442 317.115 164.442 317.115C164.442 317.115 138.345 312.394 131.241 333.736C124.136 355.078 141.171 372.056 141.171 372.056Z" fill="white"/>
<path fill-rule="evenodd" clip-rule="evenodd" d="M296.342 495.152L315.082 486.856C314.58 428.855 310.342 390.235 302.367 370.998C302.367 370.998 310.517 473.409 296.342 495.152Z" fill="#E7EAEE"/>
<path d="M459.755 351.299C464.418 357.3 472.383 365.569 482.137 363.755L510.921 307.509C510.921 307.509 503.514 304.233 497.198 306.653C490.871 309.081 463.047 338.116 463.047 338.116L459.755 351.299Z" fill="white"/>
<path fill-rule="evenodd" clip-rule="evenodd" d="M334.73 516.504C335.029 516.218 335.504 516.228 335.791 516.527C336.077 516.826 336.067 517.301 335.768 517.587C334.025 519.257 333.702 522.055 334.702 523.744C334.913 524.1 334.795 524.56 334.438 524.771C334.082 524.982 333.622 524.864 333.411 524.508C332.063 522.23 332.475 518.665 334.73 516.504Z" fill="#E7EAEE"/>
<path fill-rule="evenodd" clip-rule="evenodd" d="M328.604 511.559C328.906 511.275 329.38 511.29 329.664 511.592C329.947 511.893 329.933 512.368 329.631 512.652L329.225 513.042C326.071 516.145 325.167 518.859 327.944 521.77C328.23 522.07 328.219 522.545 327.919 522.83C327.619 523.116 327.144 523.105 326.859 522.805C324.806 520.654 324.385 518.33 325.294 516.004C325.921 514.4 327.012 513.054 328.604 511.559Z" fill="#E7EAEE"/>
<path fill-rule="evenodd" clip-rule="evenodd" d="M299.737 510.576C301.459 513.867 310.599 512.516 309.008 503.414C308.256 499.108 294.969 501.461 299.737 510.576Z" fill="#E7EAEE"/>
<path fill-rule="evenodd" clip-rule="evenodd" d="M476.43 364.801C488.509 350.998 495.451 319.956 505.398 309.274C508.909 305.504 513.463 304.658 508.561 313.584C499.592 329.915 482.354 364.801 482.354 364.801C481.442 365.258 480.314 364.801 479.294 364.801H476.43Z" fill="#E7EAEE"/>
<path d="M277.364 317.782C288.394 320.685 294.054 327.594 298.834 334.029C303.624 340.463 293.094 337.402 287.284 335.079C281.474 332.757 270.36 323.943 270.36 323.943L277.364 317.782Z" fill="white"/>
<path d="M176.894 291.654C176.894 291.654 238.984 318.327 247.734 318.362C256.474 318.398 277.924 328.813 279.084 336.942C280.494 346.831 243.084 332.297 243.084 332.297C243.084 332.297 159.474 332.297 145.544 318.362C131.605 304.427 140.894 275.396 140.894 275.396L176.894 291.654Z" fill="white"/>
<path d="M161.794 167.401C161.794 167.401 176.894 176.69 179.214 206.883C181.534 237.075 172.244 273.074 172.244 273.074C172.244 273.074 178.054 277.719 179.214 282.364C180.374 287.009 176.844 293.14 176.844 293.14C176.844 293.14 142.056 310.234 139.733 311.395C137.411 312.556 128.121 309.072 128.121 299.782C128.121 290.493 131.605 282.364 131.605 282.364C133.272 221.079 123.476 161.594 161.794 167.401Z" fill="white"/>
<path fill-rule="evenodd" clip-rule="evenodd" d="M223.304 103.155C226.875 98.372 234.425 96.8147 236.439 104.365C236.439 104.365 237.987 108.921 234.867 111.736C225.31 120.36 219.732 107.938 223.304 103.155Z" fill="white"/>
<path fill-rule="evenodd" clip-rule="evenodd" d="M243.249 108.343C246.642 103.799 253.814 102.32 255.728 109.493C255.728 109.493 257.199 113.821 254.235 116.496C245.155 124.688 239.856 112.887 243.249 108.343Z" fill="white"/>
<path d="M215.464 166.504C215.464 166.504 215.464 222.324 216.284 253.517C217.104 284.71 209.954 315.444 196.294 339.479C182.634 363.515 184.493 397.898 174.424 400.454C94.7791 420.669 116.222 173.282 145.691 157.474C175.16 141.665 184.894 138.317 184.894 138.317" fill="white"/>
<path fill-rule="evenodd" clip-rule="evenodd" d="M174.617 182.165L167.754 192.413C167.184 193.263 167.614 194.421 168.6 194.694L177.759 197.226C178.824 197.52 179.83 196.602 179.635 195.515L177.34 182.735C177.102 181.407 175.368 181.044 174.617 182.165ZM176.109 183.742L178.159 195.78L170.194 192.413L176.109 183.742Z" fill="#FFB61D"/>
<path fill-rule="evenodd" clip-rule="evenodd" d="M152.534 172.156L144.445 185.139C143.929 185.969 144.33 187.063 145.261 187.361L159.384 191.889C160.56 192.266 161.662 191.139 161.26 189.971L155.225 172.46C154.814 171.266 153.202 171.084 152.534 172.156ZM154.452 173.738L158.584 189.971L146.339 185.139L154.452 173.738Z" fill="#FFB61D"/>
<path fill-rule="evenodd" clip-rule="evenodd" d="M147.551 270.386L153.053 291.063C153.391 292.333 155.084 292.585 155.777 291.468L163.957 278.278C164.411 277.546 164.158 276.584 163.403 276.171L149.72 268.684C148.563 268.051 147.212 269.111 147.551 270.386ZM149 271L161.683 277.487L154.502 290.677L149 271Z" fill="#FFB61D"/>
<path fill-rule="evenodd" clip-rule="evenodd" d="M136.532 346.311L139.532 360.484C139.808 361.785 141.513 362.111 142.249 361.004L150.354 348.81C150.952 347.91 150.431 346.692 149.368 346.503L138.263 344.523C137.216 344.337 136.312 345.27 136.532 346.311ZM139.15 346.087L148.774 349.498L140.47 358.98L139.15 346.087Z" fill="#FFB61D"/>
<path fill-rule="evenodd" clip-rule="evenodd" d="M162.532 343.311L165.532 357.484C165.808 358.785 167.513 359.111 168.249 358.004L176.354 345.81C176.952 344.91 176.431 343.692 175.368 343.503L164.263 341.523C163.216 341.337 162.312 342.27 162.532 343.311ZM163.921 344.543L175.125 344.234L165.905 356.081L163.921 344.543Z" fill="#FFB61D"/>
<path fill-rule="evenodd" clip-rule="evenodd" d="M148.532 314.311L151.532 328.484C151.808 329.785 153.513 330.111 154.249 329.004L162.354 316.81C162.952 315.91 162.431 314.692 161.368 314.503L150.263 312.523C149.216 312.337 148.312 313.27 148.532 314.311ZM150 314L160.105 316.979L152 327.174L150 314Z" fill="#FFB61D"/>
<path fill-rule="evenodd" clip-rule="evenodd" d="M480.59 360.175C479.836 361.647 478.6 362.262 476.951 362.354C471.079 362.68 466.424 360.09 462.271 356.315C460.696 354.884 459.3 353.257 457.723 351.83C456.613 350.827 455.423 350.173 453.691 350.794C452.365 351.27 450.808 351.09 449.358 351.238C446.087 351.572 442.825 352.008 439.548 352.246C437.459 352.398 437.407 354.18 436.917 355.41C435.808 358.191 434.979 361.087 434.097 363.955C433.755 365.069 433.21 365.509 431.959 365.493C425.713 365.417 419.465 365.423 413.218 365.474C410.373 365.497 407.526 365.838 404.686 365.773C399.342 365.653 393.991 365.481 388.664 365.072C383.51 364.676 378.383 363.933 373.24 363.384C369.628 362.999 365.993 362.795 362.396 362.307C358.213 361.739 354.065 360.911 349.891 360.27C347.802 359.949 345.679 359.854 343.588 359.547C340.003 359.019 336.418 358.47 332.855 357.807C329.55 357.191 326.44 357.83 323.329 358.857C317.271 360.857 311.198 362.81 305.122 364.754C304.042 365.099 303.722 365.383 304.21 366.695C306 371.511 307.676 376.38 309.133 381.306C310.161 384.782 310.873 388.363 311.532 391.933C312.341 396.308 313.017 400.71 313.62 405.118C314.08 408.486 314.372 411.879 314.675 415.266C315.059 419.571 315.422 423.879 315.712 428.191C316.001 432.485 316.243 436.784 316.406 441.085C316.683 448.389 316.89 455.694 317.11 463C317.243 467.423 317.326 471.848 317.471 476.271C317.514 477.555 317.926 478.872 317.73 480.105C317.583 481.034 316.922 482.335 316.164 482.627C314.212 483.38 313.648 484.832 313.665 486.832C313.687 489.387 314.007 491.944 313.941 494.493C313.898 496.117 314.52 497.251 315.701 498.112C321.068 502.027 326.488 505.869 331.852 509.788C334.398 511.648 336.909 513.562 339.35 515.558C341.963 517.695 344.524 519.902 347.016 522.18C349.499 524.451 350.819 527.227 351.238 530.689C351.563 533.373 351.218 535.867 350.771 538.421C350.538 539.751 349.778 540.295 348.395 539.844C342.585 537.948 336.786 536.016 330.948 534.21C321.305 531.225 311.635 528.327 301.975 525.394C298.532 524.349 295.089 523.306 291.642 522.274C289.53 521.642 289.084 519.748 288.692 518.033C287.578 513.159 289.017 508.722 291.588 504.635C293.162 502.133 294.996 499.795 296.716 497.386C298.121 495.418 297.758 493.403 297.063 491.274C294.798 484.344 292.572 477.399 290.431 470.43C288.318 463.55 286.224 456.661 284.31 449.724C282.286 442.392 280.45 435.008 278.6 427.629C277.599 423.637 276.655 419.626 275.844 415.591C275.238 412.574 274.895 409.505 274.419 406.461C273.85 402.826 273.508 399.128 272.572 395.588C272.169 394.065 270.69 392.671 269.401 391.567C266.594 389.163 263.369 387.372 259.866 386.148C259 385.845 258.062 385.637 257.149 385.602C252.803 385.438 248.452 385.395 244.106 385.22C239.861 385.049 235.617 384.813 231.379 384.528C227.007 384.234 222.638 383.881 218.274 383.489C213.603 383.069 208.915 382.736 204.278 382.067C199.362 381.357 194.491 380.325 189.612 379.37C188.026 379.06 186.867 380.023 186.621 382.26C186.083 387.151 184.421 391.696 182.447 396.147C181.023 399.356 178.337 400.961 175.024 401.508C172.659 401.899 170.236 402.272 167.857 402.182C161.085 401.926 155.046 399.692 149.675 395.398C142.862 389.95 138.876 382.672 135.482 374.913C133.961 371.436 132.003 368.118 130.809 364.539C129.513 360.651 128.857 356.549 127.954 352.533C127.251 349.407 126.535 346.282 125.944 343.135C125.476 340.646 125.182 338.124 124.827 335.614C124.355 332.28 123.89 328.945 123.441 325.608C123.293 324.504 123.146 323.394 123.1 322.283C122.955 318.805 122.883 315.324 122.736 311.847C122.529 306.969 122.143 302.095 122.078 297.216C121.968 288.872 121.979 280.525 122.079 272.18C122.123 268.516 122.433 264.848 122.763 261.195C123.137 257.042 123.704 252.907 124.118 248.757C124.413 245.795 124.506 242.812 124.845 239.855C125.344 235.518 125.89 231.182 126.584 226.872C127.409 221.747 128.352 216.638 129.35 211.543C131.237 201.9 133.433 192.316 137.027 183.155C139.318 177.318 141.708 171.363 146.383 166.957C148.406 165.05 151.218 163.951 153.732 162.597C160.633 158.882 167.571 155.233 174.474 151.522C174.797 151.349 175.074 150.845 175.127 150.461C175.31 149.13 175.229 147.745 175.555 146.459C175.768 145.621 176.356 144.702 177.051 144.196C179.38 142.497 181.819 140.948 184.248 139.391C184.683 139.112 185.298 138.868 185.776 138.945C188.336 139.358 189.621 137.783 190.499 135.844C191.687 133.219 192.772 130.533 193.694 127.804C195.221 123.283 196.761 118.751 197.916 114.129C198.315 112.534 197.702 110.632 197.342 108.915C196.609 105.419 196.001 101.859 194.822 98.5092C194.067 96.3672 192.541 94.4244 191.083 92.6167C187.312 87.9433 185.332 82.7089 185.966 76.7115C186.241 74.1076 187.358 71.6808 189.306 69.7887C191.598 67.5621 193.948 65.3953 196.248 63.1759C197.924 61.558 197.804 60.3211 195.621 58.7395C192.566 56.5259 189.637 54.1343 186.715 51.7447C184.219 49.7039 183.145 46.788 182.484 43.799C181.585 39.7326 181.477 35.6302 183.135 31.6612C185.788 25.3134 189.61 20.0746 196.607 18.0995C202.774 16.3588 208.927 16.4767 214.461 19.9726C219.49 23.1491 222.684 27.8805 224.089 33.7199C225.738 40.573 223.861 46.74 220.398 52.6058C220.108 53.0971 220.078 53.7421 219.928 54.3158C220.443 54.4131 220.955 54.5744 221.473 54.598C228.134 54.9015 234.755 55.6408 240.721 58.8159C248.551 62.9833 253.477 69.5882 255.649 78.1849C255.974 79.4717 255.971 80.855 256.014 82.1971C256.159 86.7737 256.171 91.3568 256.441 95.9252C256.498 96.879 257.228 98.0495 258.008 98.6605C261.752 101.593 263.025 108.773 259.544 113.023C259.195 113.449 258.899 113.916 258.557 114.347C257.219 116.031 255.279 116.848 253.348 116.504C251.702 116.211 251.563 116.765 251.02 117.98C249.861 120.571 248.471 123.078 246.974 125.494C244.966 128.733 242.917 131.967 240.596 134.981C239.194 136.801 237.301 138.266 235.525 139.769C233.372 141.592 231.095 143.269 228.903 145.047C227.809 145.934 226.61 146.392 225.213 146.19C223.764 145.981 222.948 146.796 222.524 147.97C221.705 150.236 220.964 152.536 220.317 154.857C220.181 155.346 220.47 156.059 220.766 156.546C223.351 160.801 225.919 165.069 228.62 169.251C230.812 172.644 233.305 175.848 235.426 179.282C236.738 181.407 237.607 183.805 238.67 186.082C240.523 190.056 242.417 194.012 244.188 198.022C244.552 198.847 244.652 199.904 244.525 200.805C244.339 202.116 243.046 202.534 241.645 201.688C240.016 200.705 238.483 199.555 236.958 198.411C236.014 197.703 235.165 196.868 234.267 196.097C234.163 196.007 234.024 195.959 233.902 195.892C233.882 196.048 233.827 196.21 233.849 196.361C234.1 198.125 234.301 199.898 234.638 201.646C234.987 203.451 235.517 205.22 235.884 207.022C236.612 210.602 237.316 214.187 237.967 217.781C238.7 221.823 239.405 225.871 240.042 229.929C240.369 232.015 240.481 234.134 240.763 236.229C241.189 239.395 241.724 242.548 242.123 245.718C242.341 247.449 242.389 249.203 242.485 250.949C242.616 253.329 242.703 255.711 242.839 258.09C243.176 263.96 243.516 269.83 243.887 275.698C243.979 277.152 244.833 278.271 246.143 278.687C249.87 279.871 252.474 284.221 251.847 287.853C251.702 288.697 251.514 289.57 251.143 290.331C250.251 292.158 251.414 293.195 252.57 294.145C254.447 295.687 256.403 297.136 258.364 298.573C263.018 301.985 267.705 305.352 272.359 308.763C276.576 311.853 281.228 314.001 286.22 315.524C290.228 316.747 293.637 319.065 296.842 321.736C298.416 323.048 299.778 324.99 302.271 324.511C305.799 323.833 309.317 323.098 312.836 322.372C313.897 322.153 314.939 321.833 316.005 321.65C319.717 321.011 321.91 318.384 324.095 315.666C325.721 313.644 327.534 311.773 329.226 309.803C332.555 305.926 335.847 302.019 339.174 298.141C340.827 296.213 342.53 294.327 344.2 292.414C348.906 287.021 353.585 281.604 358.321 276.237C360.804 273.424 363.39 270.702 365.916 267.927C366.596 267.18 367.323 266.451 367.861 265.607C368.679 264.323 369.513 263.929 371.111 264.447C374.604 265.577 374.541 265.362 372.099 268.041C367.725 272.84 363.496 277.771 359.189 282.631C357.083 285.007 354.907 287.321 352.819 289.712C349.154 293.907 345.544 298.15 341.887 302.352C339.291 305.335 336.663 308.289 334.035 311.244C332.002 313.53 329.941 315.791 327.914 318.083C327.737 318.283 327.598 318.838 327.661 318.877C328.156 319.188 328.714 319.647 329.235 319.626C333.48 319.461 337.72 319.136 341.965 318.991C345.143 318.883 348.33 318.882 351.508 318.992C355.58 319.132 359.658 319.308 363.712 319.697C368.23 320.13 372.722 320.826 377.227 321.396C381.845 321.982 386.479 322.464 391.08 323.158C395.679 323.852 400.241 324.787 404.83 325.55C408.631 326.182 412.459 326.652 416.254 327.312C421.094 328.155 425.911 329.135 430.743 330.022C434.137 330.646 437.544 331.189 440.937 331.813C444.209 332.414 447.463 333.112 450.739 333.693C452.803 334.059 454.885 334.429 456.971 334.515C457.845 334.551 458.959 334.076 459.608 333.459C464.569 328.739 469.378 323.858 474.362 319.162C479.939 313.906 485.772 308.945 492.06 304.534C494.938 302.516 498.16 302.868 501.295 303.14C503.122 303.298 504.889 304.179 506.679 304.748C508.147 305.214 508.278 306.121 507.625 307.403C504.658 313.226 501.744 319.076 498.775 324.899C496.21 329.931 493.597 334.94 490.919 340.046C487.419 346.814 484.01 353.497 480.59 360.175ZM206.005 317.232C207.565 312.722 208.934 308.136 210.164 303.523C210.963 300.527 211.417 297.433 211.93 294.367C212.458 291.217 212.899 288.051 213.325 284.885C213.821 281.208 214.591 277.529 214.651 273.841C214.771 266.436 214.465 259.024 214.383 251.615C214.333 247.087 214.307 242.556 214.396 238.03C214.465 234.469 212.393 231.814 210.883 228.894C209.878 226.95 208.817 224.988 208.175 222.912C206.997 219.105 206.039 215.223 205.127 211.341C204.502 208.686 204.043 205.987 203.632 203.289C203.157 200.167 202.131 197.235 200.798 194.402C200.686 194.164 199.75 193.991 199.649 194.125C199.112 194.844 198.712 195.667 198.278 196.461C197.506 197.875 196.333 199.221 196.065 200.727C195.529 203.735 194.143 206.317 192.726 208.898C191.844 210.505 190.358 210.547 189.326 209.072C188.217 207.487 187.019 205.888 186.311 204.114C184.647 199.945 183.157 195.699 181.771 191.428C179.95 185.815 178.233 180.166 176.598 174.495C175.744 171.535 174.894 168.528 174.535 165.484C174.184 162.5 174.462 159.441 174.453 156.416C174.452 156.145 174.369 155.875 174.325 155.604C174.202 155.701 174.09 155.816 173.955 155.89C170.784 157.635 167.632 159.417 164.431 161.104C161.256 162.777 158.065 164.429 154.816 165.952C151.256 167.621 147.683 169.343 145.621 172.84C143.39 176.623 140.783 180.228 139.439 184.493C138.053 188.889 136.486 193.235 135.28 197.679C134.046 202.224 133.207 206.876 132.095 211.456C131.385 214.382 130.215 217.221 129.749 220.177C129.038 224.686 128.599 229.254 128.344 233.815C128.126 237.729 128.142 241.652 127.614 245.551C127.204 248.578 126.925 251.623 126.556 254.656C125.993 259.274 124.983 263.882 124.91 268.506C124.75 278.743 125.172 288.988 125.124 299.229C125.099 304.596 125.9 309.843 126.532 315.133C127.234 321.006 127.649 326.913 128.319 332.79C128.774 336.785 129.23 340.802 130.082 344.723C131.469 351.106 132.959 357.484 134.811 363.745C137.122 371.556 140.514 378.915 145.291 385.589C148.276 389.76 151.921 393.176 156.419 395.631C162.518 398.96 169.059 398.672 175.612 397.656C176.686 397.489 178.077 396.663 178.537 395.747C179.827 393.181 180.954 390.475 181.688 387.704C182.732 383.765 183.193 379.674 184.217 375.729C185.905 369.225 188.028 362.831 189.619 356.305C190.929 350.929 193.426 346.079 195.595 341.081C197.192 337.404 199.08 333.852 201.011 330.071C202.689 325.796 204.506 321.569 206.005 317.232ZM263.573 383.629C266.729 385.558 269.823 387.604 272.825 389.763C274.7 391.112 276.047 393.071 276.458 395.337C277.41 400.583 278.041 405.887 278.961 411.139C279.607 414.826 280.535 418.462 281.302 422.128C281.927 425.112 282.505 428.107 283.097 431.097C283.68 434.037 284.247 436.979 284.836 439.916C285.286 442.155 285.75 444.391 286.224 446.625C286.99 450.238 287.599 453.894 288.589 457.445C289.564 460.942 291.03 464.3 292.1 467.775C293.88 473.557 296.09 479.155 298.649 484.635C299.256 485.934 300.277 485.673 300.882 485.436C304.711 483.937 308.488 482.3 312.241 480.615C313.425 480.084 314.055 479.054 314 477.646C313.852 473.822 313.749 469.996 313.644 466.171C313.519 461.595 313.412 457.018 313.295 452.441C313.18 447.96 313.155 443.475 312.922 439C312.694 434.628 312.265 430.267 311.904 425.903C311.453 420.467 311.034 415.027 310.5 409.598C310.132 405.85 309.794 402.079 309.085 398.387C307.858 391.995 306.35 385.656 304.966 379.293C303.352 371.878 300.236 365.417 294.073 360.564C289.38 356.868 284.457 353.568 279.134 350.931C273.245 348.014 267.29 345.174 261.178 342.776C254.19 340.036 247.403 336.573 239.709 335.942C236.013 335.639 232.347 334.991 228.656 334.598C225.696 334.284 222.711 334.194 219.752 333.87C215.068 333.357 210.403 332.676 205.715 332.216C205.058 332.152 204.068 332.769 203.665 333.364C202.738 334.73 202.041 336.26 201.317 337.755C199.058 342.426 196.412 346.964 194.693 351.828C192.422 358.255 190.881 364.939 189.039 371.517C187.996 375.244 187.973 375.41 191.223 376.091C194.982 376.88 198.801 377.403 202.61 377.927C205.101 378.27 207.626 378.365 210.126 378.652C214.864 379.196 219.59 379.847 224.331 380.359C227.348 380.684 230.381 380.881 233.411 381.06C237.94 381.329 242.47 381.581 247.004 381.746C249.718 381.845 252.439 381.764 255.504 381.764C258.351 381.712 261.132 382.137 263.573 383.629ZM399.603 361.985C402.524 362.122 405.445 362.265 408.367 362.327C415.142 362.471 421.918 362.585 428.695 362.668C430.047 362.684 431.266 362.124 431.63 360.731C433.594 353.236 437.454 346.286 437.95 338.357C438.076 336.346 437.204 334.925 435.151 334.566C433.01 334.191 430.895 333.666 428.759 333.258C426.073 332.746 423.375 332.297 420.685 331.803C418.27 331.359 415.858 330.898 413.447 330.432C411.682 330.091 409.925 329.715 408.159 329.381C404.778 328.742 401.394 328.116 398.01 327.496C395.696 327.072 393.384 326.638 391.062 326.265C389.261 325.976 387.443 325.794 385.638 325.531C381.824 324.974 378.013 324.397 374.201 323.826C372.023 323.5 369.851 323.142 367.669 322.848C364.759 322.455 361.841 321.791 358.929 321.808C351.622 321.849 344.315 322.17 337.011 322.455C333.518 322.592 330.018 322.786 326.547 323.178C324.604 323.397 322.735 324.012 321.326 325.649C319.03 328.316 316.565 330.837 314.245 333.484C312.781 335.156 311.41 336.914 310.071 338.689C308.3 341.038 306.14 342.465 303.052 342.226C297.995 341.835 292.93 341.547 287.872 341.159C285.995 341.015 284.127 340.735 282.261 340.474C279.095 340.031 275.94 339.517 272.771 339.102C269.741 338.706 266.701 338.377 263.661 338.064C262.802 337.976 261.926 338.025 261.061 338.073C260.889 338.083 260.732 338.377 260.569 338.54C260.745 338.622 260.925 338.696 261.098 338.786C262.619 339.58 264.101 340.465 265.667 341.157C270.261 343.186 274.999 344.92 279.477 347.172C285.98 350.443 292.048 354.436 297.565 359.237C299.276 360.726 300.918 361.831 303.724 361.458C308.171 360.866 312.327 359.769 316.318 357.828C321.689 355.214 327.153 353.071 333.329 354.351C336.903 355.092 340.495 355.741 344.064 356.506C346.324 356.991 348.529 357.79 350.807 358.128C353.633 358.547 356.508 358.621 359.36 358.87C364.548 359.322 369.733 359.801 374.92 360.251C378.442 360.557 381.967 360.833 385.664 361.295C390.31 361.526 394.956 361.768 399.603 361.985ZM218.871 261.757C218.922 263.143 218.867 264.532 218.89 265.919C218.998 272.404 219.1 278.889 219.245 285.373C219.287 287.255 219.204 289.195 219.635 291C220.508 294.653 221.653 298.244 222.768 301.835C223.245 303.373 223.91 304.838 225.648 305.447C227.16 305.976 228.625 306.642 230.141 307.163C232.389 307.935 233.079 307.643 234.545 305.585C235.03 304.905 235.59 304.276 236.135 303.64C239.648 299.543 243.268 295.532 246.651 291.331C249.149 288.23 248.716 283.24 244.534 281.639C244.084 281.467 243.638 281.26 243.171 281.163C240.7 280.651 240.814 280.658 240.732 278.323C240.439 269.98 241.418 261.614 240.107 253.281C239.584 249.954 239.799 246.513 239.318 243.176C238.569 237.984 237.533 232.832 236.582 227.67C235.683 222.788 234.782 217.905 233.797 213.039C233.061 209.408 232.178 205.808 231.386 202.188C230.782 199.427 230.308 196.634 229.579 193.908C229.382 193.171 228.467 192.626 227.882 191.993C227.197 192.654 225.998 193.257 225.915 193.986C225.495 197.685 224.925 201.455 225.25 205.125C225.623 209.341 226.256 213.521 225.451 217.706C224.534 222.476 223.008 227.056 220.424 231.229C218.991 233.542 217.921 235.942 218.165 238.804C218.406 241.636 218.484 244.487 218.525 247.33C218.582 251.376 218.539 255.424 218.539 259.818C218.655 260.464 218.847 261.107 218.871 261.757ZM200.672 118.451C200.38 118.903 199.975 119.318 199.814 119.813C198.166 124.857 196.66 129.951 194.898 134.954C193.837 137.969 192.171 140.659 189.417 142.553C187.416 143.929 185.549 145.5 183.591 146.941C182.626 147.651 182.83 148.267 183.432 149.13C185.234 151.711 187.138 154.251 188.642 157.004C190.718 160.803 192.496 164.767 194.343 168.688C196.143 172.508 198.023 176.302 199.581 180.221C200.906 183.55 201.618 187.126 202.981 190.436C204.212 193.429 205.534 196.379 205.98 199.584C206.132 200.674 206.485 200.683 207.311 200.68C212.274 200.663 217.067 200.007 221.252 197.052C221.61 196.799 221.912 196.28 221.98 195.844C222.145 194.79 222.116 193.707 222.24 192.645C222.327 191.895 222.816 191.085 222.641 190.431C221.989 188.002 221.121 185.631 220.363 183.23C218.914 178.642 217.014 174.103 216.884 169.263C216.752 164.338 217.195 159.391 217.533 154.464C217.67 152.454 218.064 150.437 218.573 148.483C219.169 146.192 219.027 145.565 216.959 144.447C213.555 142.607 210.621 140.134 208.524 136.944C205.1 131.737 202.47 126.134 201.532 119.657C201.245 119.255 200.959 118.853 200.672 118.451ZM250.045 116.915C250.139 116.727 250.981 116.143 249.729 115.932C248.464 115.719 247.035 115.105 246.166 114.199C244.462 112.422 243.052 110.352 241.62 108.333C241.215 107.761 241.071 107.414 240.501 108.1C240.14 108.535 239.67 108.88 239.309 109.315C236.178 113.097 231.675 114.703 227.459 113.652C222.404 112.392 219.323 107.003 219.254 102.328C219.226 100.464 218.637 98.902 217.148 97.8299C214.671 96.0456 212.122 94.3576 209.576 92.6716C208.15 91.7279 206.792 92.0365 206.424 93.5249C205.513 97.2101 204.379 100.904 204.061 104.656C203.668 109.297 203.855 113.984 204.963 118.616C206.83 126.419 209.254 133.834 215.622 139.333C219.728 142.879 224.799 143.676 229.688 141.531C234.533 139.404 237.509 135.471 240.405 131.377C242.839 127.936 245.265 124.489 247.868 120.872C248.604 119.558 249.367 118.258 250.045 116.915ZM459.856 348.675C463.222 352.959 467.137 356.535 472.495 358.264C475.804 359.333 477.016 359.144 478.847 355.653C482.584 348.532 486.276 341.387 489.958 334.238C491.428 331.382 492.788 328.469 494.261 325.615C497.138 320.04 500.053 314.484 502.97 308.928C503.502 307.915 502.996 306.997 502.212 306.892C499.491 306.529 496.618 305.752 494.091 307.433C490.758 309.649 487.404 311.879 484.338 314.438C479.688 318.32 475.209 322.415 470.798 326.569C468.798 328.454 467.108 330.675 465.33 332.787C463.925 334.456 462.122 335.861 461.587 338.141C461.093 340.25 460.605 342.36 460.115 344.816C459.538 346.074 458.893 347.449 459.856 348.675ZM345.223 534.875C346.016 534.938 347.544 534.578 347.552 534.364C347.654 531.378 348.219 528.213 345.539 525.882C342.056 522.851 338.681 519.681 335.048 516.841C329.187 512.259 323.155 507.895 317.191 503.444C315.06 501.853 312.941 500.165 310.229 499.75C307.801 499.379 305.326 499.33 302.89 499.005C300.835 498.73 299.437 499.621 298.189 501.1C295.163 504.687 292.962 508.675 292.13 513.333C291.477 516.984 292.652 518.995 295.599 519.862C301.21 521.514 306.781 523.302 312.381 524.991C316.394 526.201 320.444 527.292 324.449 528.528C330.289 530.331 336.104 532.217 342.277 534.067C343.258 534.353 344.226 534.797 345.223 534.875ZM227.39 309.941C223.515 308.407 219.663 306.815 215.779 305.305C214.632 304.859 213.655 304.727 213.276 306.494C212.866 308.413 211.99 310.23 211.357 312.104C209.952 316.264 208.541 320.422 207.211 324.606C206.965 325.379 206.591 326.464 208.119 326.612C210.108 326.804 212.086 327.136 214.079 327.281C217.97 327.564 221.864 327.842 225.762 327.97C231.553 328.161 237.347 328.23 243.141 328.332C244.991 328.364 246.842 328.331 248.693 328.341C249.143 328.343 249.62 328.311 250.038 328.442C255.054 330.009 260.052 331.634 265.073 333.186C270.123 334.747 275.181 336.281 280.576 335.98C282.449 335.875 282.793 335.524 282.104 333.8C281.728 332.86 281.206 331.902 280.514 331.177C277.135 327.635 273.009 325.163 268.595 323.13C265.079 321.511 261.641 319.704 257.686 319.297C255.834 319.107 253.969 318.84 252.171 318.375C249.314 317.635 246.481 316.779 243.687 315.827C240.196 314.638 236.754 313.303 232.944 312.031C231.091 311.336 229.229 310.669 227.39 309.941ZM183.814 156.788C182.19 154.271 180.481 151.81 178.802 149.328C178.569 148.982 178.314 148.651 178.069 148.314C177.907 148.882 177.679 149.441 177.595 150.021C177.317 151.936 177.161 153.872 176.832 155.777C176.181 159.55 175.826 163.257 178.272 166.61C178.426 166.822 178.548 167.077 178.618 167.331C179.517 170.599 180.4 173.872 181.297 177.141C181.524 177.969 181.761 178.795 182.033 179.609C183.202 183.11 184.62 186.549 185.501 190.12C186.406 193.789 187.1 197.476 188.98 200.827C189.52 201.789 189.695 202.952 190.094 204.001C190.213 204.315 190.605 204.819 190.729 204.78C191.127 204.656 191.65 204.393 191.784 204.051C193.336 200.064 194.084 195.71 197.029 192.362C199.531 189.519 199.012 186.613 197.477 183.577C196.878 182.391 196.507 181.091 195.971 179.87C194.814 177.229 193.706 174.561 192.411 171.987C191.279 169.739 189.909 167.612 188.663 165.421C187.787 163.88 186.944 162.32 185.913 160.595C185.218 159.323 184.598 158.003 183.814 156.788ZM277.566 316.01C272.497 312.736 267.358 309.555 262.446 306.056C258.333 303.127 254.522 299.777 250.525 296.681C249.446 295.846 248.208 295.568 247.106 296.828C245.32 298.868 243.5 300.879 241.717 302.922C240.389 304.444 239.113 306.011 237.783 307.531C236.743 308.719 236.852 309.356 238.374 309.811C243.265 311.273 248.191 312.619 253.067 314.128C259.723 316.189 266.372 318.282 272.968 320.525C275.078 321.243 276.938 322.693 279.046 323.42C281.187 324.16 283.475 324.545 285.731 324.859C288.336 325.223 290.975 325.368 293.603 325.531C294.023 325.557 294.467 325.182 294.899 324.993C294.643 324.637 294.448 324.205 294.12 323.936C289.953 320.526 284.976 318.765 279.801 316.888C279.052 316.602 278.225 316.436 277.566 316.01ZM211.566 224.63C212.21 227.074 213.741 228.263 216.099 228.485C218.135 228.676 218.733 227.559 219.229 226.072C219.94 223.941 220.644 221.808 221.311 219.663C222.793 214.9 222.581 210.1 221.694 205.258C221.405 203.679 221.473 202.033 221.4 200.417C221.39 200.183 221.509 199.942 221.569 199.704C221.331 199.774 221.084 199.822 220.856 199.916C219.427 200.507 218.051 201.326 216.565 201.66C213.782 202.285 210.944 202.699 208.112 203.061C207.018 203.2 206.37 203.315 206.717 204.653C207.045 205.917 207.176 207.231 207.437 208.514C207.999 211.278 208.589 214.037 209.168 217.145C209.978 219.637 210.899 222.1 211.566 224.63ZM241.227 198.532C241.497 198.761 241.797 198.954 242.083 199.163C242.081 198.776 242.188 198.347 242.06 198.007C241.308 196.009 240.607 193.981 239.69 192.058C237.732 187.953 235.933 183.732 233.544 179.885C231.195 176.103 228.032 172.834 225.536 169.131C223.749 166.479 222.484 163.475 220.957 160.644C220.723 160.208 220.335 159.855 220.018 159.464C219.872 159.924 219.591 160.387 219.602 160.842C219.675 163.8 219.714 166.764 219.962 169.709C220.131 171.718 220.47 173.742 221.01 175.682C221.609 177.836 222.696 179.858 223.256 182.019C223.912 184.548 225.113 186.148 227.562 187.499C231.623 189.739 235.814 192.067 238.671 196.329C239.522 197.065 240.369 197.805 241.227 198.532ZM223.148 100.501C221.816 102.441 224.287 109.24 225.631 109.746C235.037 113.286 237.718 107.228 237.842 105.565C238.087 102.263 238.494 98.9163 235.373 96.2395C227.141 94.6021 225.302 97.3644 223.148 100.501ZM259.165 103.249C257.901 100.1 255.988 98.0455 252.656 98.7644C250.956 99.1313 249.459 100.479 247.895 101.425C244.536 103.456 244.097 104.568 245.271 108.17C246.446 111.775 249.187 113.84 252.675 114.541C255.561 115.121 257.624 113.331 259.149 110.637C259.533 108.177 260.166 105.742 259.165 103.249ZM246.709 99.1771C248.065 98.2128 249.535 96.7849 250.998 96.7321C253.529 96.6408 253.118 95.095 252.845 93.8777C252.082 90.4765 251.085 87.1255 250.112 83.7746C249.446 81.4806 248.883 81.349 247.267 82.9646C244.499 85.7323 241.695 88.4464 238.218 90.357C237.131 90.9546 236.981 92.3312 237.759 93.4157C238.048 93.8194 238.441 94.1657 238.658 94.6021C239.727 96.7517 240.697 98.9534 241.838 101.063C242.091 101.529 241.899 103.179 243.53 101.964C244.583 101.026 245.566 99.9896 246.709 99.1771ZM450.962 348.053C453.323 347.613 455.853 347.008 456.218 343.867C456.279 343.339 456.52 342.835 456.64 342.312C457.385 339.064 456.541 338.024 453.29 337.675C450.229 337.347 447.19 336.799 444.148 336.308C442.521 336.045 442.221 336.35 442.041 338.006C441.792 340.3 441.435 342.588 441.006 344.857C440.63 346.844 441.186 348.417 442.934 348.806C445.613 348.574 448.33 348.542 450.962 348.053ZM309.225 495.853C309.555 495.838 310.117 495.183 310.129 494.809C310.211 492.327 310.151 489.842 310.179 487.358C310.195 485.962 309.125 485.916 308.358 486.161C306.687 486.693 305.097 487.487 303.484 488.196C302.319 488.709 301.009 489.124 301.15 490.805C301.25 491.991 301.25 493.205 301.523 494.353C301.977 496.258 303.622 495.352 304.965 495.731C306.386 495.789 307.81 495.916 309.225 495.853ZM216.778 294.038C216.678 293.756 216.268 293.583 216 293.36C215.805 293.639 215.466 293.904 215.439 294.198C215.276 295.982 215.137 297.771 215.082 299.561C215.028 301.31 216.267 302.444 218.045 302.282C218.347 302.255 218.881 301.724 218.842 301.511C218.58 300.09 218.192 298.692 217.672 297.113C217.382 296.085 217.133 295.043 216.778 294.038ZM314.569 326.813C314.761 326.432 315.166 325.369 313.989 325.59C312.193 325.927 310.428 326.436 308.662 326.918C308.339 327.006 308.075 327.308 307.784 327.512C308.122 327.671 308.455 327.956 308.798 327.968C310.237 328.02 311.68 327.99 313.295 327.816C313.737 327.491 314.348 327.25 314.569 326.813ZM180.533 144.81C180.256 144.971 179.979 145.132 179.703 145.293C179.92 145.535 180.099 145.872 180.37 145.985C180.533 146.053 180.889 145.82 181.076 145.639C182.144 144.604 183.193 143.549 184.236 142.488C184.444 142.275 184.596 142.007 184.774 141.764C184.423 141.833 183.982 141.79 183.737 141.989C182.695 142.833 181.711 143.748 180.533 144.81Z" fill="#00160A"/>
<path fill-rule="evenodd" clip-rule="evenodd" d="M217.726 124.601C216.1 123.721 214.491 123 214.153 121.041C213.497 117.235 214.868 112.75 219.829 113.011C224.302 113.246 227.14 116.961 225.558 121.156C224.391 124.25 221.559 125.784 217.726 124.601Z" fill="#FFB61D"/>
<path fill-rule="evenodd" clip-rule="evenodd" d="M239.784 110.401C239.873 109.817 239.962 109.409 240.051 109C240.192 109.356 240.373 109.702 240.467 110.07C241.165 112.801 243.376 119.599 240.742 122.727C240.523 122.988 239.412 123.029 238.72 122.985C237.36 122.899 235.774 120.893 236.027 119.599C236.065 119.405 239.347 122.591 240.051 120.866C241.226 117.991 239.784 111.389 239.784 110.401Z" fill="#00160A"/>
<path fill-rule="evenodd" clip-rule="evenodd" d="M221.268 130.322C221.131 130.253 220.942 130.271 220.778 130.278C220.374 130.295 219.821 129.571 220.056 129.264C220.411 128.803 220.813 128.338 221.294 128.034C221.58 127.853 222.053 128.439 222.017 128.699C221.991 128.892 222.175 129.196 222.353 129.327C225.071 131.323 228.088 132.617 231.389 133.239C231.607 133.28 231.797 133.475 232 133.598C231.798 133.739 231.596 134.012 231.393 134C227.791 133.789 223.627 131.519 221.268 130.322Z" fill="#00160A"/>
<path fill-rule="evenodd" clip-rule="evenodd" d="M133.521 286.658L130.1 301.268C129.836 302.398 130.899 303.387 132.007 303.042L143.883 299.345C144.882 299.034 145.263 297.821 144.622 296.994L136.168 286.081C135.394 285.083 133.809 285.429 133.521 286.658ZM134.982 289L142.437 297.913L131.561 301.61L134.982 289Z" fill="#FFB61D"/>
<path fill-rule="evenodd" clip-rule="evenodd" d="M144.134 202.365C142.884 202.252 142.057 203.634 142.747 204.683L151.447 217.909C152.033 218.801 153.337 218.812 153.939 217.931L161.946 206.204C162.592 205.258 161.982 203.966 160.842 203.864L144.134 202.365ZM145.311 203.864L160.269 206.771L151.447 216.005L145.311 203.864Z" fill="#FFB61D"/>
<path fill-rule="evenodd" clip-rule="evenodd" d="M199.271 303.5H187C185.983 303.5 185.261 304.491 185.572 305.459L189.694 318.271C190.083 319.481 191.706 319.689 192.388 318.617L200.537 305.805C201.172 304.806 200.455 303.5 199.271 303.5ZM198.271 306L192.122 317.812L188 305L198.271 306Z" fill="#FFB61D"/>
<path fill-rule="evenodd" clip-rule="evenodd" d="M159.063 372.924L158.502 384.032C158.443 385.196 159.677 385.979 160.705 385.431L174.973 377.831C176.181 377.187 175.966 375.393 174.639 375.054L160.933 371.547C160.014 371.312 159.111 371.977 159.063 372.924ZM160.147 373.985L173.259 375.805L160.705 383.226L160.147 373.985Z" fill="#FFB61D"/>
<path fill-rule="evenodd" clip-rule="evenodd" d="M140.146 236.507L129.146 244.131C128.215 244.777 128.307 246.181 129.315 246.699L142.188 253.307C143.264 253.86 144.518 252.976 144.36 251.777L142.487 237.544C142.341 236.431 141.068 235.867 140.146 236.507ZM140.587 239.156L142.873 251.973L130 245.364L140.587 239.156Z" fill="#FFB61D"/>
<path fill-rule="evenodd" clip-rule="evenodd" d="M190.618 269.165L183.754 279.413C183.163 280.296 183.651 281.496 184.69 281.716L192.715 283.413C193.707 283.623 194.617 282.809 194.519 281.8L193.357 269.855C193.221 268.453 191.401 267.995 190.618 269.165ZM192.487 271.219V282.193L185.586 279.413L192.487 271.219Z" fill="#FFB61D"/>
<path fill-rule="evenodd" clip-rule="evenodd" d="M191.918 220.886C193.915 219.583 195.667 219.892 194.241 222.76C194.241 222.76 183.83 249.156 180.72 249.469C177.77 249.765 176.346 245.95 172.227 235.043L172.052 234.579C172.036 234.538 172.023 234.496 172.011 234.456L171.989 234.368L171.962 234.32L171.905 234.187L171.413 232.855C170.831 231.267 169.366 228.646 168.592 227.735C167.767 226.765 169.608 226.164 170.968 226.164C173.506 226.164 176.612 226.873 181.496 225.463C187.217 223.812 189.18 222.673 191.918 220.886ZM187.49 234.447L187.353 234.536C185.9 235.43 184.295 236.118 182.541 236.597C180.443 237.171 177.399 237.242 175.429 236.812L175.1 236.735L175.222 237.038C176.333 239.808 177.321 243.011 178.182 244.64L178.483 245.195C179.023 246.165 179.497 246.869 179.88 247.293L180 247.418L180.149 247.238C180.791 246.417 183.077 243.329 184.664 240.244L184.83 239.92C185.51 238.587 186.251 237.072 187.054 235.376L187.49 234.447ZM191.775 223.936L191.534 224.073C189.275 225.331 185.539 227.419 182.328 228.345C178.485 229.455 175.226 229.851 172.545 229.496L172.381 229.471L172.475 229.737C172.731 230.453 173.817 233.846 174.201 234.368C175.757 235.805 177.664 235.942 180 235.376L180.335 235.29C188.698 233.674 191.775 223.936 191.775 223.936Z" fill="#FFB61D"/>
<path fill-rule="evenodd" clip-rule="evenodd" d="M485.479 316.216C485.812 315.97 486.282 316.041 486.528 316.374C488.259 318.722 491.19 318.838 495.087 316.674C495.449 316.473 495.906 316.604 496.107 316.966C496.308 317.328 496.178 317.784 495.815 317.985C491.332 320.475 487.578 320.327 485.32 317.264C485.074 316.931 485.145 316.461 485.479 316.216Z" fill="#E7EAEE"/>
<path fill-rule="evenodd" clip-rule="evenodd" d="M479.809 322.224C480.116 321.945 480.59 321.968 480.869 322.274C483.495 325.163 486.985 325.328 489.823 323.812C490.189 323.617 490.643 323.755 490.838 324.12C491.033 324.486 490.895 324.94 490.53 325.135C487.14 326.946 482.907 326.746 479.759 323.283C479.48 322.977 479.503 322.503 479.809 322.224Z" fill="#E7EAEE"/>
<path fill-rule="evenodd" clip-rule="evenodd" d="M473.668 328.175C473.969 327.891 474.444 327.905 474.728 328.207C477.259 330.896 482.405 332.21 485.925 330.345C486.291 330.151 486.745 330.29 486.939 330.656C487.133 331.022 486.993 331.476 486.627 331.67C482.459 333.879 476.598 332.382 473.636 329.235C473.352 328.933 473.366 328.459 473.668 328.175Z" fill="#E7EAEE"/>
<path fill-rule="evenodd" clip-rule="evenodd" d="M478.435 351.696C483.7 349.149 478.257 339.709 473.162 343.53C469.894 345.98 473.477 354.095 478.435 351.696Z" fill="#E7EAEE"/>
</svg>
